<mxfile host="app.diagrams.net" modified="2023-09-11T22:56:58.934Z" agent="Mozilla/5.0 (Windows NT 10.0; Win64; x64) AppleWebKit/537.36 (KHTML, like Gecko) Chrome/116.0.0.0 Safari/537.36 Edg/116.0.1938.76" etag="KV_fTZgftJDzvePmlrHB" version="21.7.4" type="github">
  <diagram name="PÃ¡gina-1" id="MMYfzO8ws4wUX-EKUS-9">
    <mxGraphModel dx="3078" dy="1135" grid="1" gridSize="10" guides="1" tooltips="1" connect="1" arrows="1" fold="1" page="1" pageScale="1" pageWidth="827" pageHeight="1169" math="0" shadow="0">
      <root>
        <mxCell id="0" />
        <mxCell id="1" parent="0" />
        <mxCell id="oKKWXMjkqjJ7Z1r8CHuq-1" value="Actor" style="shape=umlActor;verticalLabelPosition=bottom;verticalAlign=top;html=1;outlineConnect=0;" vertex="1" parent="1">
          <mxGeometry x="-1550" y="10" width="30" height="60" as="geometry" />
        </mxCell>
        <mxCell id="oKKWXMjkqjJ7Z1r8CHuq-3" value="" style="ellipse;whiteSpace=wrap;html=1;" vertex="1" parent="1">
          <mxGeometry x="-1590" y="160" width="120" height="80" as="geometry" />
        </mxCell>
        <mxCell id="oKKWXMjkqjJ7Z1r8CHuq-4" value="" style="ellipse;whiteSpace=wrap;html=1;" vertex="1" parent="1">
          <mxGeometry x="-1590" y="320" width="120" height="80" as="geometry" />
        </mxCell>
        <mxCell id="oKKWXMjkqjJ7Z1r8CHuq-5" value="" style="ellipse;whiteSpace=wrap;html=1;" vertex="1" parent="1">
          <mxGeometry x="-1590" y="810" width="120" height="80" as="geometry" />
        </mxCell>
        <mxCell id="oKKWXMjkqjJ7Z1r8CHuq-6" value="" style="ellipse;whiteSpace=wrap;html=1;" vertex="1" parent="1">
          <mxGeometry x="-1590" y="470" width="120" height="80" as="geometry" />
        </mxCell>
        <mxCell id="oKKWXMjkqjJ7Z1r8CHuq-7" value="" style="ellipse;whiteSpace=wrap;html=1;" vertex="1" parent="1">
          <mxGeometry x="-1590" y="640" width="120" height="80" as="geometry" />
        </mxCell>
      </root>
    </mxGraphModel>
  </diagram>
</mxfile>
